<mxfile host="app.diagrams.net" modified="2024-04-09T06:07:30.295Z" agent="Mozilla/5.0 (Windows NT 10.0; Win64; x64) AppleWebKit/537.36 (KHTML, like Gecko) Chrome/123.0.0.0 Safari/537.36" version="24.2.1" etag="90eIJ0E1RCCAioxRbUWo" type="github">
  <diagram name="페이지-1" id="aq8Vw57xKmThrdyL-9n2">
    <mxGraphModel>
      <root>
        <mxCell id="0" />
        <mxCell id="1" parent="0" />
      </root>
    </mxGraphModel>
  </diagram>
</mxfile>
